<svg width="24" height="24" viewBox="0 0 24 24" fill="none" xmlns="http://www.w3.org/2000/svg"><path d="M6.7 10.2C6.7 6.8 9.1 5 12 5C14.9 5 17.3 6.8 17.3 10.2V16.5C17.3 18 16.1 19.2 14.6 19.2H9.4C7.9 19.2 6.7 18 6.7 16.5V10.2Z" fill="currentColor" fill-opacity=".13"/><path d="M6.7 10.2C6.7 6.8 9.1 5 12 5C14.9 5 17.3 6.8 17.3 10.2V16.5C17.3 18 16.1 19.2 14.6 19.2H9.4C7.9 19.2 6.7 18 6.7 16.5V10.2Z" stroke="currentColor" stroke-width="1.55"/><path d="M8 10.5H16M10 13.2H14M12 5V3.8" stroke="currentColor" stroke-width="1.45" stroke-linecap="round"/></svg>
